<svg width="64" height="64" viewBox="0 0 64 64" fill="none" xmlns="http://www.w3.org/2000/svg">
<rect width="64" height="64" rx="10" fill="black" fill-opacity="0.88"/>
<path d="M20 12C20 9.23858 22.2386 7 25 7V7V29V29C22.2386 29 20 26.7614 20 24V12Z" fill="#2780B2"/>
<path d="M27 24H38C40.7614 24 43 26.2386 43 29V29H27V24Z" fill="#2780B2"/>
<path d="M38 31H43V40C43 42.7614 40.7614 45 38 45V45V31Z" fill="#2780B2"/>
<path d="M20 40H36V45H25C22.2386 45 20 42.7614 20 40V40Z" fill="#2780B2"/>
<path d="M27 7H38C40.7614 7 43 9.23858 43 12V12H27V7Z" fill="#2780B3"/>
<path d="M53 13.5C53 12.6716 53.6716 12 54.5 12V12C55.3284 12 56 12.6716 56 13.5V25H53V13.5Z" fill="#2780B2"/>
<path d="M53 27H56V39H53V27Z" fill="#2780B2"/>
<path d="M40 57V54H52V54C52 55.6569 50.6569 57 49 57H40Z" fill="#2780B2"/>
<path d="M26 57V54H38V57H26Z" fill="#2780B2"/>
<path d="M53 41H56V50C56 51.6569 54.6569 53 53 53V53V41Z" fill="#2780B2"/>
<path d="M11 55.5C11 54.6716 11.6716 54 12.5 54H24V57H12.5C11.6716 57 11 56.3284 11 55.5V55.5Z" fill="#2780B2"/>
</svg>
